<svg xmlns="http://www.w3.org/2000/svg" viewBox="0 0 40 40">
  <defs>
    <linearGradient id="b" x1="-214.87" x2="-214.57" y1="-431.73" y2="-431.73" gradientTransform="matrix(-50.8 103.5 -103.5 -50.8 -55574.1 317.4)" gradientUnits="userSpaceOnUse">
      <stop offset=".3" stop-color="#3e863d"/>
      <stop offset=".5" stop-color="#55934f"/>
      <stop offset=".8" stop-color="#5aad45"/>
    </linearGradient>
    <linearGradient id="d" x1="-216.24" x2="-216.04" y1="574.22" y2="574.22" gradientTransform="scale(177.1 -177.1) rotate(36.5 762.86 615.008)" gradientUnits="userSpaceOnUse">
      <stop offset=".57" stop-color="#3e863d"/>
      <stop offset=".72" stop-color="#619857"/>
      <stop offset="1" stop-color="#76ac64"/>
    </linearGradient>
    <linearGradient id="f" x1="-215.54" x2="-215.36" y1="-431.16" y2="-431.16" gradientTransform="translate(28007.2 56027.5) scale(129.9)" gradientUnits="userSpaceOnUse">
      <stop offset=".16" stop-color="#6bbf47"/>
      <stop offset=".38" stop-color="#79b461"/>
      <stop offset=".47" stop-color="#75ac64"/>
      <stop offset=".7" stop-color="#659e5a"/>
      <stop offset=".9" stop-color="#3e863d"/>
    </linearGradient>
    <clipPath id="a">
      <path fill="none" d="M19.53 6.27L8.74 12.49a1.31 1.31 0 00-.66 1.13v12.46a1.33 1.33 0 00.65 1.13l10.79 6.23a1.31 1.31 0 001.3 0l10.79-6.23a1.33 1.33 0 00.65-1.13V13.62a1.3 1.3 0 00-.65-1.13L20.83 6.27a1.28 1.28 0 00-1.31 0"/>
    </clipPath>
    <clipPath id="c">
      <path fill="none" d="M8.36 26.87a1.24 1.24 0 00.38.34L18 32.55l1.54.88a1.32 1.32 0 00.75.17 1.17 1.17 0 00.26 0l11.37-20.87a1.5 1.5 0 00-.31-.24l-7.06-4.08-3.73-2.14a1.43 1.43 0 00-.34-.14z"/>
    </clipPath>
    <clipPath id="e">
      <path fill="none" d="M20.05 6.1a1.38 1.38 0 00-.52.17L8.78 12.48 20.37 33.6a1.54 1.54 0 00.47-.16l10.78-6.23a1.33 1.33 0 00.63-.89L20.43 6.12a2.48 2.48 0 00-.27 0h-.11"/>
    </clipPath>
  </defs>
  <g clip-path="url(#a)">
    <path fill="url(#b)" d="M43.16 11.43L12.77-3.46-2.81 28.33l30.39 14.89z"/>
  </g>
  <g clip-path="url(#c)">
    <path fill="url(#d)" d="M-4.78 15.84l21.46 29 28.38-21L23.6-5.13z"/>
  </g>
  <g clip-path="url(#e)">
    <path fill="url(#f)" d="M8.77 6.09V33.6h23.47V6.09z"/>
  </g>
</svg>
